<svg id="gameCharacter" xmlns="http://www.w3.org/2000/svg" viewBox="0 0 560.85 742.89">
  <defs>
    <style>
      .cls-1 {
        fill: #ffd5b0;
      }

      .cls-2 {
        fill: #08337f;
      }

      .cls-3 {
        fill: #595959;
      }

      .cls-4 {
        fill: #d65005;
      }

      .cls-5 {
        fill: #fcbf95;
      }

      .cls-6 {
        fill: #5a6266;
      }

      .cls-7 {
        fill: #9e9e9e;
      }

      .cls-8 {
        fill: #898989;
      }

      .cls-9 {
        fill: #b2b2b2;
      }

      .cls-10 {
        fill: #999;
      }

      .cls-11 {
        fill: #4d5356;
      }
    </style>
  </defs>
  <title>character</title>
  <path id="body" d="M251,86.35H240.4v66.84H251V174.8H263v11.06h10.05v11.55H251.45V210h-11V221H228.34v11.06H217.28v11.06H206.73v11.56H195.17v22.11H183.61v22.11H138.88v22.62h11.56v66.84h21.61V401h11.56V411.5h10.55v10.05h23.62v57.8h11.06v10h11V502H228.34v32.17H216.78v67.34H206V647.2h-10.8v34.18H183.61V725.6H172.55v11.56H161v33.17s78.9,2.51,78.9,0V714H251V669.31H263V647.7h10.05V614.54h12.06V579.36h10.06V536.14h12.56V513.52h10.55V491.41h11.06V513H339.9v21.61h11.56v44.73H363V614h11.06V646.7h11.56v22.61h11.55V714h11.06v57.4h78.9V737.16H476.09V725.1H463.53V680.87h-10V647.2H441.92V603H430.36V534.63H419.81V501H407.24V488.9h12.07v-9.55h11.05V412h56.79v10.05H497.7v11.05h34.18V423.06H554V412.51h12.06V398.94h55.28V388.89h11.06V365.77h11.06V355.22H655V343.16h44.73V322.55H643.45V310H632.39v10.55H621.33V310H497.7V299.43H486.65V288.38H475.09V276.32H453V254.71H441.92V243.65H430.87V232.09H419.31V220.53H409.26V208.47H397.19V197.92H374.08V185.86h11.05V175.3h12.06V152.69h11.56V86.35H397.7V63.73H386.14V51.67H374.08V41.12H364V28.56H283.62V41.12H273.57V51.67H262V62.73H251Z" transform="translate(-138.88 -28.56)"/>
  <g id="face">
    <polygon id="skin" class="cls-1" points="134.69 68.35 168.86 68.35 168.86 57.29 202.03 57.29 202.03 68.35 235.7 68.35 235.7 102.52 224.14 102.52 224.14 123.63 213.59 123.63 213.59 135.69 202.53 135.69 202.53 146.75 190.97 146.75 190.97 169.86 179.41 169.86 179.41 146.24 168.86 146.24 168.86 135.19 157.3 135.19 157.3 124.63 145.74 124.63 145.74 102.02 134.69 102.02 134.69 68.35"/>
    <rect id="month" x="179.41" y="79.4" width="11.06" height="45.23"/>
    <polygon id="eye1" class="cls-2" points="156.95 68.38 156.95 68.38 156.95 79.4 168.89 79.4 168.89 68.38 156.95 68.38"/>
    <rect id="eye2" class="cls-2" x="201.96" y="68.38" width="11.02" height="11.03"/>
    <polygon id="helmet" class="cls-3" points="112.07 57.79 112.07 124.63 123.58 124.63 123.58 146.24 145.93 146.24 145.93 159.01 168.89 159.01 168.89 146.76 156.95 146.76 156.95 135.19 146.23 135.19 146.23 124.63 133.68 124.63 133.68 102.02 123.27 102.02 123.27 68.38 134.69 68.38 134.69 57.79 145.32 57.79 145.32 46.33 224.92 46.33 224.92 57.29 235.7 57.29 235.7 68.35 246.66 68.35 246.66 102.02 235.7 102.02 235.7 124.63 224.92 124.63 224.92 135.92 213.59 135.92 213.59 146.76 202.53 146.76 202.53 159.01 224.62 159.01 224.62 146.76 246.25 146.76 246.25 124.63 258.31 124.63 258.31 57.79 246.66 57.79 246.66 35.18 235.7 35.18 235.7 23.12 224.62 23.12 224.62 12.56 145.62 12.56 145.62 23.37 134.69 23.37 134.69 35 123.27 35 123.27 57.29 112.07 57.29 112.07 57.79"/>
    <rect class="cls-4" x="168.89" y="135.92" width="33.64" height="10.83"/>
  </g>
  <g id="skins">
    <polygon class="cls-1" points="44.63 281.5 44.63 304.33 32.77 304.33 32.77 359.83 44.63 359.83 44.63 372.39 56.04 372.39 56.04 383.78 101.25 383.78 101.25 393 157 393 157 382.9 168.41 382.9 168.41 393 213.62 393 213.62 383.34 224.16 383.34 224.16 360.95 213.18 360.95 213.18 349.54 157 349.54 157 360.07 146.02 360.07 146.02 349.1 89.4 349.1 89.4 339.01 78.42 339.01 78.42 303.45 89.4 303.45 89.4 292.92 67.45 292.92 67.45 281.5 44.63 281.5"/>
    <polygon class="cls-1" points="359.35 371.44 359.35 393 393 393 393 382.22 415.11 382.22 415.11 371.44 359.35 371.44"/>
    <polygon class="cls-5" points="32.77 303.89 55.16 303.89 55.16 315.74 43.97 315.74 43.97 327.15 32.77 327.15 32.77 303.89"/>
  </g>
  <g id="leg">
    <polygon class="cls-6" points="77.51 608.48 122.94 608.48 122.94 618.48 111.69 618.48 111.69 640.76 100.22 640.76 100.22 685.49 89.18 685.49 89.18 731.02 33.33 731.02 33.33 708.6 45 708.6 45 697.04 56.67 697.04 56.67 652.82 67.92 652.82 67.92 618.64 77.5 618.64 77.51 608.48"/>
    <polygon class="cls-6" points="247.12 607.72 291.9 607.72 291.9 619.2 302.92 619.2 302.92 652.49 314.18 652.49 314.18 697.5 325.43 697.5 325.43 708.52 336.45 708.52 336.45 731.26 280.43 731.26 280.43 686.71 269.37 686.71 269.37 640.78 258.31 640.78 258.31 618.74 247.12 618.74 247.12 607.72"/>
    <polygon class="cls-7" points="156.98 394.63 167.84 394.63 167.84 404.74 179.82 404.74 179.82 417.1 201.53 417.1 201.53 405.86 213.51 405.86 213.51 394.63 235.97 394.63 235.97 450.41 247.12 450.41 247.12 461.64 258.06 461.64 258.06 472.87 269.29 472.87 269.29 506.94 280.43 506.94 280.43 573.95 291.48 573.95 291.48 596.41 247.12 596.41 247.12 585.18 235.2 585.18 235.2 551.49 224.14 551.49 224.14 506.56 212.58 506.56 212.58 484.1 201.91 484.1 201.91 460.89 191.05 460.89 191.05 450.79 179.82 450.79 179.82 460.89 167.84 460.89 167.84 484.97 156.98 484.97 156.98 507.58 145.75 507.58 145.75 550.8 134.15 550.8 134.15 585.98 122.94 585.98 122.94 596.41 78.13 596.41 78.13 574.7 89.6 574.7 89.6 505.57 100.83 505.57 100.83 473.41 112.44 473.41 112.44 461.64 122.94 461.64 122.94 450.41 134.52 450.41 134.52 405.12 156.98 405.12 156.98 394.63"/>
  </g>
  <g id="guns">
    <polygon class="cls-8" points="158.02 248.56 158.02 270.84 168.89 270.84 168.89 259.7 270.08 259.7 270.08 248.56 158.02 248.56"/>
    <rect class="cls-8" x="10.97" y="281.5" width="22.65" height="11.49"/>
    <polygon class="cls-8" points="270.08 270.84 270.08 259.7 336.21 259.7 336.21 270.84 325.2 270.84 325.2 281.5 280.43 281.5 280.43 270.84 270.08 270.84"/>
    <rect class="cls-8" x="146.08" y="270.84" width="11.94" height="10.66"/>
    <rect class="cls-8" x="134.68" y="258.67" width="11.4" height="12.17"/>
    <rect class="cls-9" x="123.58" y="270.84" width="11.11" height="10.66"/>
    <polygon class="cls-8" points="100.61 281.5 100.61 292.99 112.07 292.99 112.07 303.89 123.58 303.89 123.58 315.52 112.09 315.52 112.09 327.15 89.59 327.15 89.59 337.25 146.08 337.25 146.08 327.15 504.56 327.15 504.56 304.6 482.73 304.6 482.73 315.16 460.68 315.16 460.68 304.6 482.73 304.6 482.73 291.99 359.35 291.99 359.35 281.43 348.62 281.43 348.62 270.88 336.21 270.88 336.21 281.5 325.2 281.5 325.2 293.11 336.21 293.11 336.21 304.06 314.63 304.06 314.63 293.11 303.15 293.11 303.15 304.06 280.43 304.06 280.43 293.11 270.08 293.11 270.08 304.06 247.58 304.06 247.58 293.11 123.58 293.11 123.58 281.5 100.61 281.5"/>
    <rect x="359.35" y="304.67" width="22.18" height="10.5"/>
    <rect x="426.74" y="304.67" width="22.17" height="10.5"/>
    <rect x="393.2" y="304.67" width="21.91" height="10.5"/>
    <polygon class="cls-10" points="214.05 338.5 214.05 349.3 224.16 349.3 224.16 360.09 236.28 360.09 236.28 349.3 280.43 349.3 280.43 338.5 214.05 338.5"/>
    <polygon class="cls-10" points="280.43 349.3 280.43 371.44 348.28 371.44 348.28 360.37 381.54 360.37 381.54 338.5 291.48 338.5 291.48 349.3 280.43 349.3"/>
    <rect class="cls-10" x="426.74" y="338.5" width="11.08" height="22.46"/>
    <rect class="cls-10" x="448.91" y="338.5" width="11.67" height="22.46"/>
    <rect class="cls-10" x="471.37" y="338.5" width="11.38" height="21.83"/>
    <polygon class="cls-11" points="89.59 404.95 100.51 404.95 100.51 416.55 123.58 416.55 123.58 450.41 89.96 450.41 89.59 404.95"/>
    <polygon class="cls-11" points="258.04 360.96 270.08 360.96 270.08 371.44 280.43 371.44 280.43 393 270.08 393 270.08 382.22 246.05 382.22 246.05 371.44 258.14 371.44 258.04 360.96"/>
    <polygon class="cls-11" points="247.24 394.63 269.01 394.63 269.01 405.48 280.43 405.48 280.43 450.19 247.12 450.19 247.24 394.63"/>
  </g>
  <polygon id="topBody" class="cls-8" points="112.57 181.42 112.57 191.84 101.52 191.84 101.52 203.1 89.45 203.1 89.45 214.81 78.8 214.81 78.8 236.85 100.84 236.85 100.84 247.88 112.57 247.88 112.57 270.84 123.35 270.84 123.35 259.36 134.69 259.36 134.69 248.33 156.64 248.33 156.64 237.08 291.9 237.08 291.9 214.12 280.43 214.12 280.43 203.53 269.4 203.53 269.4 192.07 258.31 192.07 258.31 181.42 247.35 181.42 247.35 226.13 224.16 226.13 224.16 169.86 213.59 169.86 213.59 180.82 156.87 180.82 156.87 169.86 145.62 169.86 145.62 226.06 122.89 226.06 122.89 180.82 112.57 180.82 112.57 181.42"/>
</svg>
